Coordinates
version=1
nRows=19
nColumns=30
inDegrees=yes

Units are S.I. units (second, meters, Newtons, ...)
Angles are in degrees.

endheader
time	floatyaw	floatroll	floatpitch	floatx	floaty	floatz	pro_sup_l	deviation_l	flexion_l	cmc_flexion_l	cmc_abduction_l	mp_flexion_l	ip_flexion_l	2mcp_flexion_l	2mcp_abduction_l	2pm_flexion_l	2md_flexion_l	3mcp_flexion_l	3mcp_abduction_l	3pm_flexion_l	3md_flexion_l	4mcp_flexion_l	4mcp_abduction_l	4pm_flexion_l	4md_flexion_l	5mcp_flexion_l	5mcp_abduction_l	5pm_flexion_l	5md_flexion_l
0.005000	-160.147433	-5.066637	-73.570646	-0.059981	-0.106303	-0.112135	118.712293	33.538010	-12.609686	0.191385	39.468983	-25.681969	-49.664359	35.122958	13.821820	66.391349	64.480319	51.147136	6.558203	76.658599	57.837725	49.786923	-5.352611	82.300460	63.951100	36.258581	-14.739315	81.434673	65.253905
0.015000	-160.147433	-5.066637	-73.570646	-0.060048	-0.102558	-0.111614	116.778847	33.220293	-11.220531	0.110158	39.921893	-25.739019	-50.427513	38.637897	14.461045	64.349848	64.865062	54.422331	6.556642	75.741617	58.345794	53.523732	-5.516924	80.904275	64.859225	37.884526	-14.873606	80.400211	66.166421
0.025000	-160.147433	-5.066637	-73.570646	-0.059999	-0.098677	-0.111210	115.243794	32.846613	-9.956257	0.401807	40.103646	-25.677026	-51.312497	41.453371	14.948487	62.060476	65.091919	56.792358	6.538743	74.245293	58.587143	55.900778	-5.667410	79.250986	65.570953	38.706668	-14.948491	79.162787	67.065764
0.035000	-160.147433	-5.066637	-73.570646	-0.059894	-0.095026	-0.110979	114.008022	32.479180	-8.763846	0.803270	40.078747	-25.565348	-52.310728	43.649362	15.317602	59.969083	65.283426	58.422714	6.525806	72.612722	58.736850	57.251865	-5.798878	77.766280	66.250561	39.098978	-15.029953	78.025917	67.957407
0.045000	-160.147433	-5.066637	-73.570646	-0.059758	-0.091994	-0.110930	112.998432	32.140523	-7.672396	1.114976	39.944855	-25.467816	-53.384310	45.328730	15.588032	58.353734	65.445872	59.511912	6.522602	71.157404	58.847107	57.974240	-5.906324	76.630741	66.896093	39.315781	-15.136785	77.194951	68.722442
0.055000	-160.147433	-5.066637	-73.570646	-0.059591	-0.089863	-0.111023	112.186555	31.823181	-6.762525	1.236519	39.785251	-25.426920	-54.445882	46.582059	15.775772	57.292782	65.549732	60.235244	6.524586	70.050511	58.907927	58.388277	-5.987735	75.854518	67.427663	39.464731	-15.258131	76.745881	69.230414
0.065000	-160.147433	-5.066637	-73.570646	-0.059386	-0.088699	-0.111191	111.568131	31.511834	-6.100129	1.160149	39.638780	-25.456685	-55.360665	47.479065	15.899031	56.694012	65.582579	60.712692	6.525257	69.334049	58.903513	58.670895	-6.044977	75.367653	67.774056	39.542253	-15.371368	76.632432	69.424504
0.075000	-160.147433	-5.066637	-73.570646	-0.059137	-0.088327	-0.111363	111.131560	31.203094	-5.679023	0.934579	39.495734	-25.548050	-55.982626	48.076078	15.977473	56.372770	65.557058	61.009487	6.520845	68.951485	58.835515	58.870201	-6.082644	75.081779	67.914305	39.499258	-15.455429	76.731950	69.342230
0.085000	-160.147433	-5.066637	-73.570646	-0.058848	-0.088409	-0.111492	110.841659	30.911962	-5.412084	0.625299	39.314100	-25.681792	-56.208174	48.424987	16.027798	56.142057	65.490422	61.156980	6.511726	68.788442	58.718634	58.965179	-6.105951	74.915279	67.875512	39.298314	-15.498812	76.905642	69.081460
0.095000	-160.147433	-5.066637	-73.570646	-0.058535	-0.088593	-0.111556	110.646689	30.663951	-5.175738	0.292167	39.041149	-25.843599	-56.016279	48.573371	16.059808	55.876317	65.383620	61.172325	6.501185	68.715484	58.569700	58.922179	-6.118980	74.798214	67.711259	38.937054	-15.501804	77.044351	68.746972
0.105000	-160.147433	-5.066637	-73.570646	-0.058212	-0.088635	-0.111560	110.498298	30.480768	-4.875849	-0.014171	38.627338	-26.036654	-55.473091	48.555425	16.075773	55.531925	65.218103	61.065050	6.492915	68.625008	58.404236	58.720951	-6.124019	74.675451	67.481049	38.437200	-15.473535	77.087063	68.410486
0.115000	-160.147433	-5.066637	-73.570646	-0.057883	-0.088460	-0.111517	110.368593	30.369282	-4.492501	-0.248973	38.030176	-26.284626	-54.701045	48.383124	16.073772	55.130454	64.971045	60.835483	6.488868	68.454540	58.239519	58.354064	-6.122043	74.513496	67.237304	37.819160	-15.426659	77.016444	68.098715
0.125000	-160.147433	-5.066637	-73.570646	-0.057536	-0.088134	-0.111446	110.254783	30.318936	-4.080022	-0.373711	37.214847	-26.619856	-53.831202	48.048948	16.053208	54.723082	64.637095	60.477262	6.488500	68.191810	58.095745	57.820129	-6.113964	74.305256	67.017959	37.086767	-15.372991	76.843106	67.804807
0.135000	-160.147433	-5.066637	-73.570646	-0.057156	-0.087792	-0.111360	110.171355	30.306836	-3.728454	-0.361834	36.159113	-27.061175	-52.963221	47.543386	16.018990	54.355935	64.242094	59.989302	6.489486	67.863439	57.990836	57.126123	-6.101885	74.066640	66.842495	36.233932	-15.321530	76.589739	67.509300
0.145000	-160.147433	-5.066637	-73.570646	-0.056735	-0.087548	-0.111275	110.136249	30.306623	-3.512567	-0.205920	34.863900	-27.594566	-52.149066	46.878913	15.981389	54.049596	63.839737	59.390939	6.489202	67.514430	57.932456	56.298504	-6.089410	73.825064	66.712053	35.266078	-15.278176	76.281363	67.198352
0.155000	-160.147433	-5.066637	-73.570646	-0.056283	-0.087447	-0.111210	110.158978	30.297079	-3.456177	0.078754	33.363941	-28.169631	-51.401570	46.105619	15.951430	53.796593	63.491781	58.728687	6.486109	67.187071	57.914241	55.391365	-6.080591	73.605220	66.614686	34.218467	-15.245834	75.941767	66.873077
0.165000	-160.147433	-5.066637	-73.570646	-0.055827	-0.087462	-0.111178	110.235836	30.267589	-3.526691	0.457500	31.729782	-28.715314	-50.716408	45.306491	15.934871	53.573369	63.241590	58.067582	6.480352	66.906680	57.919556	54.480597	-6.078124	73.418998	66.533782	33.156867	-15.224355	75.592902	66.548644
0.175000	-160.147433	-5.066637	-73.570646	-0.055399	-0.087522	-0.111191	110.352575	30.218992	-3.657105	0.886630	30.055684	-29.166390	-50.091694	44.571911	15.929062	53.358816	63.095222	57.470460	6.473380	66.678324	57.929795	53.643376	-6.082057	73.263984	66.455260	32.158765	-15.210731	75.254653	66.245199
0.185000	-160.147433	-5.066637	-73.570646	-0.055028	-0.087557	-0.111245	110.491279	30.159977	-3.779804	1.327350	28.436111	-29.486167	-49.534707	43.966640	15.924906	53.149097	63.020812	56.976614	6.466977	66.493454	57.931598	52.933385	-6.089940	73.129739	66.370495	31.285906	-15.200183	74.944320	65.976009
